<svg width="36" height="36" viewBox="0 0 36 36" fill="none" xmlns="http://www.w3.org/2000/svg">
<path d="M33 28.5C33 29.2956 32.6839 30.0587 32.1213 30.6213C31.5587 31.1839 30.7956 31.5 30 31.5H6C5.20435 31.5 4.44129 31.1839 3.87868 30.6213C3.31607 30.0587 3 29.2956 3 28.5V12C3 10.35 4.35 9 6 9H10.5L13.5 4.5H22.5L25.5 9H30C30.7956 9 31.5587 9.31607 32.1213 9.87868C32.6839 10.4413 33 11.2044 33 12V28.5Z" stroke="#4F4F4F" stroke-width="3" stroke-linecap="round" stroke-linejoin="round"/>
<path d="M18 25.5C21.3137 25.5 24 22.8137 24 19.5C24 16.1863 21.3137 13.5 18 13.5C14.6863 13.5 12 16.1863 12 19.5C12 22.8137 14.6863 25.5 18 25.5Z" stroke="#4F4F4F" stroke-width="3" stroke-linecap="round" stroke-linejoin="round"/>
</svg>
