<svg width="20" height="20" viewBox="0 0 20 20" fill="none" xmlns="http://www.w3.org/2000/svg">
<path d="M7.33333 4V6C7.33333 6.35362 7.19286 6.69276 6.94281 6.94281C6.69276 7.19286 6.35362 7.33333 6 7.33333H4M16 7.33333H14C13.6464 7.33333 13.3072 7.19286 13.0572 6.94281C12.8071 6.69276 12.6667 6.35362 12.6667 6V4M12.6667 16V14C12.6667 13.6464 12.8071 13.3072 13.0572 13.0572C13.3072 12.8071 13.6464 12.6667 14 12.6667H16M4 12.6667H6C6.35362 12.6667 6.69276 12.8071 6.94281 13.0572C7.19286 13.3072 7.33333 13.6464 7.33333 14V16" stroke="#765F2C" stroke-width="1.5" stroke-linecap="round" stroke-linejoin="round"/>
</svg>
